<?xml version="1.0" encoding="UTF-8"?>
<svg id="Capa_2" data-name="Capa 2" xmlns="http://www.w3.org/2000/svg" viewBox="0 0 622 1002">
  <defs>
    <style>
      .cls-1, .cls-2 {
        stroke: #000;
      }

      .cls-1, .cls-2, .cls-3, .cls-4, .cls-5, .cls-6, .cls-7 {
        stroke-miterlimit: 10;
      }

      .cls-1, .cls-3, .cls-4, .cls-5 {
        fill: none;
      }

      .cls-8 {
        fill: #b2902f;
      }

      .cls-8, .cls-9, .cls-10, .cls-11, .cls-12, .cls-13, .cls-14 {
        stroke-width: 0px;
      }

      .cls-3, .cls-4, .cls-5, .cls-6, .cls-7 {
        stroke: #fff;
      }

      .cls-3, .cls-5, .cls-7 {
        stroke-width: 6px;
      }

      .cls-3, .cls-7 {
        stroke-linecap: square;
      }

      .cls-9 {
        fill: #374b90;
      }

      .cls-10 {
        fill: #1d265f;
      }

      .cls-4 {
        stroke-linecap: round;
        stroke-width: 7px;
      }

      .cls-11, .cls-6 {
        fill: #fff;
      }

      .cls-12 {
        fill: #d8cb85;
      }

      .cls-13, .cls-7 {
        fill: #97541d;
      }

      .cls-14 {
        fill: #7d1810;
      }
    </style>
  </defs>
  <g id="Capa_2-2" data-name="Capa 2">
    <g>
      <rect class="cls-9" x="-190" y="190" width="1002" height="622" rx="41.29" ry="41.29" transform="translate(812 190) rotate(90)"/>
      <g>
        <path class="cls-10" d="m18.94,75.74l-6.77-45.46c-1.61,1.95-4.09,5.45-5.54,10.44-1.71,5.91-1.11,10.92-.62,13.51.65,2.87,1.88,6.81,4.31,11.06,2.84,4.96,6.2,8.36,8.61,10.44Z"/>
        <path class="cls-10" d="m28.16,75.13L42.31,8.17c-4.52,1.6-10.43,4.22-16.61,8.6-4.72,3.34-8.36,6.83-11.07,9.83,4.51,16.18,9.02,32.35,13.53,48.53Z"/>
        <path class="cls-10" d="m44.77,6.94c-2.67,23.14-5.33,46.28-8,69.42C54.41,51.17,72.04,25.98,89.67.8c-7.04-.54-16.12-.55-26.45,1.23-7.13,1.23-13.33,3.05-18.45,4.91Z"/>
        <path class="cls-10" d="m44.16,81.27L89.67.8c35.87,3.01,63.29,18.34,68.28,39.32.92,3.86,1.28,8.75,0,14.74-1.33,4.64-4.15,12.09-10.46,19.04-6.01,6.63-12.34,9.68-20.3,13.51-5.79,2.79-14.29,6.26-25.22,8.6-6.37.91-14.06,1.52-22.76,1.23-9.3-.32-17.41-1.59-23.99-3.07,28.09-7.17,56.18-14.33,84.27-21.5l-87.96,14.13,80.58-62.04-87.96,56.52Z"/>
      </g>
      <g>
        <path class="cls-10" d="m172.71,75.74l-6.77-45.46c-1.61,1.95-4.09,5.45-5.54,10.44-1.71,5.91-1.11,10.92-.62,13.51.65,2.87,1.88,6.81,4.31,11.06,2.84,4.96,6.2,8.36,8.61,10.44Z"/>
        <path class="cls-10" d="m181.94,75.13l14.15-66.96c-4.52,1.6-10.43,4.22-16.61,8.6-4.72,3.34-8.36,6.83-11.07,9.83,4.51,16.18,9.02,32.35,13.53,48.53Z"/>
        <path class="cls-10" d="m198.55,6.94c-2.67,23.14-5.33,46.28-8,69.42,17.63-25.19,35.27-50.37,52.9-75.56-7.04-.54-16.12-.55-26.45,1.23-7.13,1.23-13.33,3.05-18.45,4.91Z"/>
        <path class="cls-10" d="m197.93,81.27L243.45.8c35.87,3.01,63.29,18.34,68.28,39.32.92,3.86,1.28,8.75,0,14.74-1.33,4.64-4.15,12.09-10.46,19.04-6.01,6.63-12.34,9.68-20.3,13.51-5.79,2.79-14.29,6.26-25.22,8.6-6.37.91-14.06,1.52-22.76,1.23-9.3-.32-17.41-1.59-23.99-3.07,28.09-7.17,56.18-14.33,84.27-21.5l-87.96,14.13,80.58-62.04-87.96,56.52Z"/>
      </g>
      <g>
        <path class="cls-10" d="m327.11,75.74l-6.77-45.46c-1.61,1.95-4.09,5.45-5.54,10.44-1.71,5.91-1.11,10.92-.62,13.51.65,2.87,1.88,6.81,4.31,11.06,2.84,4.96,6.2,8.36,8.61,10.44Z"/>
        <path class="cls-10" d="m336.34,75.13l14.15-66.96c-4.52,1.6-10.43,4.22-16.61,8.6-4.72,3.34-8.36,6.83-11.07,9.83,4.51,16.18,9.02,32.35,13.53,48.53Z"/>
        <path class="cls-10" d="m352.94,6.94c-2.67,23.14-5.33,46.28-8,69.42,17.63-25.19,35.27-50.37,52.9-75.56-7.04-.54-16.12-.55-26.45,1.23-7.13,1.23-13.33,3.05-18.45,4.91Z"/>
        <path class="cls-10" d="m352.33,81.27L397.85.8c35.87,3.01,63.29,18.34,68.28,39.32.92,3.86,1.28,8.75,0,14.74-1.33,4.64-4.15,12.09-10.46,19.04-6.01,6.63-12.34,9.68-20.3,13.51-5.79,2.79-14.29,6.26-25.22,8.6-6.37.91-14.06,1.52-22.76,1.23-9.3-.32-17.41-1.59-23.99-3.07,28.09-7.17,56.18-14.33,84.27-21.5l-87.96,14.13,80.58-62.04-87.96,56.52Z"/>
      </g>
      <g>
        <path class="cls-10" d="m479.66,75.74l-6.77-45.46c-1.61,1.95-4.09,5.45-5.54,10.44-1.71,5.91-1.11,10.92-.62,13.51.65,2.87,1.88,6.81,4.31,11.06,2.84,4.96,6.2,8.36,8.61,10.44Z"/>
        <path class="cls-10" d="m488.88,75.13l14.15-66.96c-4.52,1.6-10.43,4.22-16.61,8.6-4.72,3.34-8.36,6.83-11.07,9.83,4.51,16.18,9.02,32.35,13.53,48.53Z"/>
        <path class="cls-10" d="m505.49,6.94c-2.67,23.14-5.33,46.28-8,69.42,17.63-25.19,35.27-50.37,52.9-75.56-7.04-.54-16.12-.55-26.45,1.23-7.13,1.23-13.33,3.05-18.45,4.91Z"/>
        <path class="cls-10" d="m504.88,81.27L550.4.8c35.87,3.01,63.29,18.34,68.28,39.32.92,3.86,1.28,8.75,0,14.74-1.33,4.64-4.15,12.09-10.46,19.04-6.01,6.63-12.34,9.68-20.3,13.51-5.79,2.79-14.29,6.26-25.22,8.6-6.37.91-14.06,1.52-22.76,1.23-9.3-.32-17.41-1.59-23.99-3.07,28.09-7.17,56.18-14.33,84.27-21.5l-87.96,14.13,80.58-62.04-87.96,56.52Z"/>
      </g>
      <g>
        <path class="cls-10" d="m18.94,175.87l-6.77-45.46c-1.61,1.95-4.09,5.45-5.54,10.44-1.71,5.91-1.11,10.92-.62,13.51.65,2.87,1.88,6.81,4.31,11.06,2.84,4.96,6.2,8.36,8.61,10.44Z"/>
        <path class="cls-10" d="m28.16,175.26l14.15-66.96c-4.52,1.6-10.43,4.22-16.61,8.6-4.72,3.34-8.36,6.83-11.07,9.83,4.51,16.18,9.02,32.35,13.53,48.53Z"/>
        <path class="cls-10" d="m44.77,107.07c-2.67,23.14-5.33,46.28-8,69.42,17.63-25.19,35.27-50.37,52.9-75.56-7.04-.54-16.12-.55-26.45,1.23-7.13,1.23-13.33,3.05-18.45,4.91Z"/>
        <path class="cls-10" d="m44.16,181.4l45.52-80.47c35.87,3.01,63.29,18.34,68.28,39.32.92,3.86,1.28,8.75,0,14.74-1.33,4.64-4.15,12.09-10.46,19.04-6.01,6.63-12.34,9.68-20.3,13.51-5.79,2.79-14.29,6.26-25.22,8.6-6.37.91-14.06,1.52-22.76,1.23-9.3-.32-17.41-1.59-23.99-3.07,28.09-7.17,56.18-14.33,84.27-21.5l-87.96,14.13,80.58-62.04-87.96,56.52Z"/>
      </g>
      <g>
        <path class="cls-10" d="m172.71,175.87l-6.77-45.46c-1.61,1.95-4.09,5.45-5.54,10.44-1.71,5.91-1.11,10.92-.62,13.51.65,2.87,1.88,6.81,4.31,11.06,2.84,4.96,6.2,8.36,8.61,10.44Z"/>
        <path class="cls-10" d="m181.94,175.26l14.15-66.96c-4.52,1.6-10.43,4.22-16.61,8.6-4.72,3.34-8.36,6.83-11.07,9.83,4.51,16.18,9.02,32.35,13.53,48.53Z"/>
        <path class="cls-10" d="m198.55,107.07c-2.67,23.14-5.33,46.28-8,69.42,17.63-25.19,35.27-50.37,52.9-75.56-7.04-.54-16.12-.55-26.45,1.23-7.13,1.23-13.33,3.05-18.45,4.91Z"/>
        <path class="cls-10" d="m197.93,181.4l45.52-80.47c35.87,3.01,63.29,18.34,68.28,39.32.92,3.86,1.28,8.75,0,14.74-1.33,4.64-4.15,12.09-10.46,19.04-6.01,6.63-12.34,9.68-20.3,13.51-5.79,2.79-14.29,6.26-25.22,8.6-6.37.91-14.06,1.52-22.76,1.23-9.3-.32-17.41-1.59-23.99-3.07,28.09-7.17,56.18-14.33,84.27-21.5l-87.96,14.13,80.58-62.04-87.96,56.52Z"/>
      </g>
      <g>
        <path class="cls-10" d="m327.11,175.87l-6.77-45.46c-1.61,1.95-4.09,5.45-5.54,10.44-1.71,5.91-1.11,10.92-.62,13.51.65,2.87,1.88,6.81,4.31,11.06,2.84,4.96,6.2,8.36,8.61,10.44Z"/>
        <path class="cls-10" d="m336.34,175.26l14.15-66.96c-4.52,1.6-10.43,4.22-16.61,8.6-4.72,3.34-8.36,6.83-11.07,9.83,4.51,16.18,9.02,32.35,13.53,48.53Z"/>
        <path class="cls-10" d="m352.94,107.07c-2.67,23.14-5.33,46.28-8,69.42,17.63-25.19,35.27-50.37,52.9-75.56-7.04-.54-16.12-.55-26.45,1.23-7.13,1.23-13.33,3.05-18.45,4.91Z"/>
        <path class="cls-10" d="m352.33,181.4l45.52-80.47c35.87,3.01,63.29,18.34,68.28,39.32.92,3.86,1.28,8.75,0,14.74-1.33,4.64-4.15,12.09-10.46,19.04-6.01,6.63-12.34,9.68-20.3,13.51-5.79,2.79-14.29,6.26-25.22,8.6-6.37.91-14.06,1.52-22.76,1.23-9.3-.32-17.41-1.59-23.99-3.07,28.09-7.17,56.18-14.33,84.27-21.5l-87.96,14.13,80.58-62.04-87.96,56.52Z"/>
      </g>
      <g>
        <path class="cls-10" d="m479.66,175.87l-6.77-45.46c-1.61,1.95-4.09,5.45-5.54,10.44-1.71,5.91-1.11,10.92-.62,13.51.65,2.87,1.88,6.81,4.31,11.06,2.84,4.96,6.2,8.36,8.61,10.44Z"/>
        <path class="cls-10" d="m488.88,175.26l14.15-66.96c-4.52,1.6-10.43,4.22-16.61,8.6-4.72,3.34-8.36,6.83-11.07,9.83,4.51,16.18,9.02,32.35,13.53,48.53Z"/>
        <path class="cls-10" d="m505.49,107.07c-2.67,23.14-5.33,46.28-8,69.42,17.63-25.19,35.27-50.37,52.9-75.56-7.04-.54-16.12-.55-26.45,1.23-7.13,1.23-13.33,3.05-18.45,4.91Z"/>
        <path class="cls-10" d="m504.88,181.4l45.52-80.47c35.87,3.01,63.29,18.34,68.28,39.32.92,3.86,1.28,8.75,0,14.74-1.33,4.64-4.15,12.09-10.46,19.04-6.01,6.63-12.34,9.68-20.3,13.51-5.79,2.79-14.29,6.26-25.22,8.6-6.37.91-14.06,1.52-22.76,1.23-9.3-.32-17.41-1.59-23.99-3.07,28.09-7.17,56.18-14.33,84.27-21.5l-87.96,14.13,80.58-62.04-87.96,56.52Z"/>
      </g>
      <g>
        <path class="cls-10" d="m18.94,276.01l-6.77-45.46c-1.61,1.95-4.09,5.45-5.54,10.44-1.71,5.91-1.11,10.92-.62,13.51.65,2.87,1.88,6.81,4.31,11.06,2.84,4.96,6.2,8.36,8.61,10.44Z"/>
        <path class="cls-10" d="m28.16,275.39l14.15-66.96c-4.52,1.6-10.43,4.22-16.61,8.6-4.72,3.34-8.36,6.83-11.07,9.83,4.51,16.18,9.02,32.35,13.53,48.53Z"/>
        <path class="cls-10" d="m44.77,207.2c-2.67,23.14-5.33,46.28-8,69.42,17.63-25.19,35.27-50.37,52.9-75.56-7.04-.54-16.12-.55-26.45,1.23-7.13,1.23-13.33,3.05-18.45,4.91Z"/>
        <path class="cls-10" d="m44.16,281.53l45.52-80.47c35.87,3.01,63.29,18.34,68.28,39.32.92,3.86,1.28,8.75,0,14.74-1.33,4.64-4.15,12.09-10.46,19.04-6.01,6.63-12.34,9.68-20.3,13.51-5.79,2.79-14.29,6.26-25.22,8.6-6.37.91-14.06,1.52-22.76,1.23-9.3-.32-17.41-1.59-23.99-3.07,28.09-7.17,56.18-14.33,84.27-21.5l-87.96,14.13,80.58-62.04-87.96,56.52Z"/>
      </g>
      <g>
        <path class="cls-10" d="m172.71,276.01l-6.77-45.46c-1.61,1.95-4.09,5.45-5.54,10.44-1.71,5.91-1.11,10.92-.62,13.51.65,2.87,1.88,6.81,4.31,11.06,2.84,4.96,6.2,8.36,8.61,10.44Z"/>
        <path class="cls-10" d="m181.94,275.39l14.15-66.96c-4.52,1.6-10.43,4.22-16.61,8.6-4.72,3.34-8.36,6.83-11.07,9.83,4.51,16.18,9.02,32.35,13.53,48.53Z"/>
        <path class="cls-10" d="m198.55,207.2c-2.67,23.14-5.33,46.28-8,69.42,17.63-25.19,35.27-50.37,52.9-75.56-7.04-.54-16.12-.55-26.45,1.23-7.13,1.23-13.33,3.05-18.45,4.91Z"/>
        <path class="cls-10" d="m197.93,281.53l45.52-80.47c35.87,3.01,63.29,18.34,68.28,39.32.92,3.86,1.28,8.75,0,14.74-1.33,4.64-4.15,12.09-10.46,19.04-6.01,6.63-12.34,9.68-20.3,13.51-5.79,2.79-14.29,6.26-25.22,8.6-6.37.91-14.06,1.52-22.76,1.23-9.3-.32-17.41-1.59-23.99-3.07,28.09-7.17,56.18-14.33,84.27-21.5l-87.96,14.13,80.58-62.04-87.96,56.52Z"/>
      </g>
      <g>
        <path class="cls-10" d="m327.11,276.01l-6.77-45.46c-1.61,1.95-4.09,5.45-5.54,10.44-1.71,5.91-1.11,10.92-.62,13.51.65,2.87,1.88,6.81,4.31,11.06,2.84,4.96,6.2,8.36,8.61,10.44Z"/>
        <path class="cls-10" d="m336.34,275.39l14.15-66.96c-4.52,1.6-10.43,4.22-16.61,8.6-4.72,3.34-8.36,6.83-11.07,9.83,4.51,16.18,9.02,32.35,13.53,48.53Z"/>
        <path class="cls-10" d="m352.94,207.2c-2.67,23.14-5.33,46.28-8,69.42,17.63-25.19,35.27-50.37,52.9-75.56-7.04-.54-16.12-.55-26.45,1.23-7.13,1.23-13.33,3.05-18.45,4.91Z"/>
        <path class="cls-10" d="m352.33,281.53l45.52-80.47c35.87,3.01,63.29,18.34,68.28,39.32.92,3.86,1.28,8.75,0,14.74-1.33,4.64-4.15,12.09-10.46,19.04-6.01,6.63-12.34,9.68-20.3,13.51-5.79,2.79-14.29,6.26-25.22,8.6-6.37.91-14.06,1.52-22.76,1.23-9.3-.32-17.41-1.59-23.99-3.07,28.09-7.17,56.18-14.33,84.27-21.5l-87.96,14.13,80.58-62.04-87.96,56.52Z"/>
      </g>
      <g>
        <path class="cls-10" d="m479.66,276.01l-6.77-45.46c-1.61,1.95-4.09,5.45-5.54,10.44-1.71,5.91-1.11,10.92-.62,13.51.65,2.87,1.88,6.81,4.31,11.06,2.84,4.96,6.2,8.36,8.61,10.44Z"/>
        <path class="cls-10" d="m488.88,275.39l14.15-66.96c-4.52,1.6-10.43,4.22-16.61,8.6-4.72,3.34-8.36,6.83-11.07,9.83,4.51,16.18,9.02,32.35,13.53,48.53Z"/>
        <path class="cls-10" d="m505.49,207.2c-2.67,23.14-5.33,46.28-8,69.42,17.63-25.19,35.27-50.37,52.9-75.56-7.04-.54-16.12-.55-26.45,1.23-7.13,1.23-13.33,3.05-18.45,4.91Z"/>
        <path class="cls-10" d="m504.88,281.53l45.52-80.47c35.87,3.01,63.29,18.34,68.28,39.32.92,3.86,1.28,8.75,0,14.74-1.33,4.64-4.15,12.09-10.46,19.04-6.01,6.63-12.34,9.68-20.3,13.51-5.79,2.79-14.29,6.26-25.22,8.6-6.37.91-14.06,1.52-22.76,1.23-9.3-.32-17.41-1.59-23.99-3.07,28.09-7.17,56.18-14.33,84.27-21.5l-87.96,14.13,80.58-62.04-87.96,56.52Z"/>
      </g>
      <g>
        <path class="cls-10" d="m18.94,376.14l-6.77-45.46c-1.61,1.95-4.09,5.45-5.54,10.44-1.71,5.91-1.11,10.92-.62,13.51.65,2.87,1.88,6.81,4.31,11.06,2.84,4.96,6.2,8.36,8.61,10.44Z"/>
        <path class="cls-10" d="m28.16,375.52l14.15-66.96c-4.52,1.6-10.43,4.22-16.61,8.6-4.72,3.34-8.36,6.83-11.07,9.83,4.51,16.18,9.02,32.35,13.53,48.53Z"/>
        <path class="cls-10" d="m44.77,307.34c-2.67,23.14-5.33,46.28-8,69.42,17.63-25.19,35.27-50.37,52.9-75.56-7.04-.54-16.12-.55-26.45,1.23-7.13,1.23-13.33,3.05-18.45,4.91Z"/>
        <path class="cls-10" d="m44.16,381.67l45.52-80.47c35.87,3.01,63.29,18.34,68.28,39.32.92,3.86,1.28,8.75,0,14.74-1.33,4.64-4.15,12.09-10.46,19.04-6.01,6.63-12.34,9.68-20.3,13.51-5.79,2.79-14.29,6.26-25.22,8.6-6.37.91-14.06,1.52-22.76,1.23-9.3-.32-17.41-1.59-23.99-3.07,28.09-7.17,56.18-14.33,84.27-21.5l-87.96,14.13,80.58-62.04-87.96,56.52Z"/>
      </g>
      <g>
        <path class="cls-10" d="m172.71,376.14l-6.77-45.46c-1.61,1.95-4.09,5.45-5.54,10.44-1.71,5.91-1.11,10.92-.62,13.51.65,2.87,1.88,6.81,4.31,11.06,2.84,4.96,6.2,8.36,8.61,10.44Z"/>
        <path class="cls-10" d="m181.94,375.52l14.15-66.96c-4.52,1.6-10.43,4.22-16.61,8.6-4.72,3.34-8.36,6.83-11.07,9.83,4.51,16.18,9.02,32.35,13.53,48.53Z"/>
        <path class="cls-10" d="m198.55,307.34c-2.67,23.14-5.33,46.28-8,69.42,17.63-25.19,35.27-50.37,52.9-75.56-7.04-.54-16.12-.55-26.45,1.23-7.13,1.23-13.33,3.05-18.45,4.91Z"/>
        <path class="cls-10" d="m197.93,381.67l45.52-80.47c35.87,3.01,63.29,18.34,68.28,39.32.92,3.86,1.28,8.75,0,14.74-1.33,4.64-4.15,12.09-10.46,19.04-6.01,6.63-12.34,9.68-20.3,13.51-5.79,2.79-14.29,6.26-25.22,8.6-6.37.91-14.06,1.52-22.76,1.23-9.3-.32-17.41-1.59-23.99-3.07,28.09-7.17,56.18-14.33,84.27-21.5l-87.96,14.13,80.58-62.04-87.96,56.52Z"/>
      </g>
      <g>
        <path class="cls-10" d="m327.11,376.14l-6.77-45.46c-1.61,1.95-4.09,5.45-5.54,10.44-1.71,5.91-1.11,10.92-.62,13.51.65,2.87,1.88,6.81,4.31,11.06,2.84,4.96,6.2,8.36,8.61,10.44Z"/>
        <path class="cls-10" d="m336.34,375.52l14.15-66.96c-4.52,1.6-10.43,4.22-16.61,8.6-4.72,3.34-8.36,6.83-11.07,9.83,4.51,16.18,9.02,32.35,13.53,48.53Z"/>
        <path class="cls-10" d="m352.94,307.34c-2.67,23.14-5.33,46.28-8,69.42,17.63-25.19,35.27-50.37,52.9-75.56-7.04-.54-16.12-.55-26.45,1.23-7.13,1.23-13.33,3.05-18.45,4.91Z"/>
        <path class="cls-10" d="m352.33,381.67l45.52-80.47c35.87,3.01,63.29,18.34,68.28,39.32.92,3.86,1.28,8.75,0,14.74-1.33,4.64-4.15,12.09-10.46,19.04-6.01,6.63-12.34,9.68-20.3,13.51-5.79,2.79-14.29,6.26-25.22,8.6-6.37.91-14.06,1.52-22.76,1.23-9.3-.32-17.41-1.59-23.99-3.07,28.09-7.17,56.18-14.33,84.27-21.5l-87.96,14.13,80.58-62.04-87.96,56.52Z"/>
      </g>
      <g>
        <path class="cls-10" d="m479.66,376.14l-6.77-45.46c-1.61,1.95-4.09,5.45-5.54,10.44-1.71,5.91-1.11,10.92-.62,13.51.65,2.87,1.88,6.81,4.31,11.06,2.84,4.96,6.2,8.36,8.61,10.44Z"/>
        <path class="cls-10" d="m488.88,375.52l14.15-66.96c-4.52,1.6-10.43,4.22-16.61,8.6-4.72,3.34-8.36,6.83-11.07,9.83,4.51,16.18,9.02,32.35,13.53,48.53Z"/>
        <path class="cls-10" d="m505.49,307.34c-2.67,23.14-5.33,46.28-8,69.42,17.63-25.19,35.27-50.37,52.9-75.56-7.04-.54-16.12-.55-26.45,1.23-7.13,1.23-13.33,3.05-18.45,4.91Z"/>
        <path class="cls-10" d="m504.88,381.67l45.52-80.47c35.87,3.01,63.29,18.34,68.28,39.32.92,3.86,1.28,8.75,0,14.74-1.33,4.64-4.15,12.09-10.46,19.04-6.01,6.63-12.34,9.68-20.3,13.51-5.79,2.79-14.29,6.26-25.22,8.6-6.37.91-14.06,1.52-22.76,1.23-9.3-.32-17.41-1.59-23.99-3.07,28.09-7.17,56.18-14.33,84.27-21.5l-87.96,14.13,80.58-62.04-87.96,56.52Z"/>
      </g>
      <g>
        <path class="cls-10" d="m18.94,476.27l-6.77-45.46c-1.61,1.95-4.09,5.45-5.54,10.44-1.71,5.91-1.11,10.92-.62,13.51.65,2.87,1.88,6.81,4.31,11.06,2.84,4.96,6.2,8.36,8.61,10.44Z"/>
        <path class="cls-10" d="m28.16,475.65l14.15-66.96c-4.52,1.6-10.43,4.22-16.61,8.6-4.72,3.34-8.36,6.83-11.07,9.83,4.51,16.18,9.02,32.35,13.53,48.53Z"/>
        <path class="cls-10" d="m44.77,407.47c-2.67,23.14-5.33,46.28-8,69.42,17.63-25.19,35.27-50.37,52.9-75.56-7.04-.54-16.12-.55-26.45,1.23-7.13,1.23-13.33,3.05-18.45,4.91Z"/>
        <path class="cls-10" d="m44.16,481.8l45.52-80.47c35.87,3.01,63.29,18.34,68.28,39.32.92,3.86,1.28,8.75,0,14.74-1.33,4.64-4.15,12.09-10.46,19.04-6.01,6.63-12.34,9.68-20.3,13.51-5.79,2.79-14.29,6.26-25.22,8.6-6.37.91-14.06,1.52-22.76,1.23-9.3-.32-17.41-1.59-23.99-3.07,28.09-7.17,56.18-14.33,84.27-21.5l-87.96,14.13,80.58-62.04-87.96,56.52Z"/>
      </g>
      <g>
        <path class="cls-10" d="m172.71,476.27l-6.77-45.46c-1.61,1.95-4.09,5.45-5.54,10.44-1.71,5.91-1.11,10.92-.62,13.51.65,2.87,1.88,6.81,4.31,11.06,2.84,4.96,6.2,8.36,8.61,10.44Z"/>
        <path class="cls-10" d="m181.94,475.65l14.15-66.96c-4.52,1.6-10.43,4.22-16.61,8.6-4.72,3.34-8.36,6.83-11.07,9.83,4.51,16.18,9.02,32.35,13.53,48.53Z"/>
        <path class="cls-10" d="m198.55,407.47c-2.67,23.14-5.33,46.28-8,69.42,17.63-25.19,35.27-50.37,52.9-75.56-7.04-.54-16.12-.55-26.45,1.23-7.13,1.23-13.33,3.05-18.45,4.91Z"/>
        <path class="cls-10" d="m197.93,481.8l45.52-80.47c35.87,3.01,63.29,18.34,68.28,39.32.92,3.86,1.28,8.75,0,14.74-1.33,4.64-4.15,12.09-10.46,19.04-6.01,6.63-12.34,9.68-20.3,13.51-5.79,2.79-14.29,6.26-25.22,8.6-6.37.91-14.06,1.52-22.76,1.23-9.3-.32-17.41-1.59-23.99-3.07,28.09-7.17,56.18-14.33,84.27-21.5l-87.96,14.13,80.58-62.04-87.96,56.52Z"/>
      </g>
      <g>
        <path class="cls-10" d="m327.11,476.27l-6.77-45.46c-1.61,1.95-4.09,5.45-5.54,10.44-1.71,5.91-1.11,10.92-.62,13.51.65,2.87,1.88,6.81,4.31,11.06,2.84,4.96,6.2,8.36,8.61,10.44Z"/>
        <path class="cls-10" d="m336.34,475.65l14.15-66.96c-4.52,1.6-10.43,4.22-16.61,8.6-4.72,3.34-8.36,6.83-11.07,9.83,4.51,16.18,9.02,32.35,13.53,48.53Z"/>
        <path class="cls-10" d="m352.94,407.47c-2.67,23.14-5.33,46.28-8,69.42,17.63-25.19,35.27-50.37,52.9-75.56-7.04-.54-16.12-.55-26.45,1.23-7.13,1.23-13.33,3.05-18.45,4.91Z"/>
        <path class="cls-10" d="m352.33,481.8l45.52-80.47c35.87,3.01,63.29,18.34,68.28,39.32.92,3.86,1.28,8.75,0,14.74-1.33,4.64-4.15,12.09-10.46,19.04-6.01,6.63-12.34,9.68-20.3,13.51-5.79,2.79-14.29,6.26-25.22,8.6-6.37.91-14.06,1.52-22.76,1.23-9.3-.32-17.41-1.59-23.99-3.07,28.09-7.17,56.18-14.33,84.27-21.5l-87.96,14.13,80.58-62.04-87.96,56.52Z"/>
      </g>
      <g>
        <path class="cls-10" d="m479.66,476.27l-6.77-45.46c-1.61,1.95-4.09,5.45-5.54,10.44-1.71,5.91-1.11,10.92-.62,13.51.65,2.87,1.88,6.81,4.31,11.06,2.84,4.96,6.2,8.36,8.61,10.44Z"/>
        <path class="cls-10" d="m488.88,475.65l14.15-66.96c-4.52,1.6-10.43,4.22-16.61,8.6-4.72,3.34-8.36,6.83-11.07,9.83,4.51,16.18,9.02,32.35,13.53,48.53Z"/>
        <path class="cls-10" d="m505.49,407.47c-2.67,23.14-5.33,46.28-8,69.42,17.63-25.19,35.27-50.37,52.9-75.56-7.04-.54-16.12-.55-26.45,1.23-7.13,1.23-13.33,3.05-18.45,4.91Z"/>
        <path class="cls-10" d="m504.88,481.8l45.52-80.47c35.87,3.01,63.29,18.34,68.28,39.32.92,3.86,1.28,8.75,0,14.74-1.33,4.64-4.15,12.09-10.46,19.04-6.01,6.63-12.34,9.68-20.3,13.51-5.79,2.79-14.29,6.26-25.22,8.6-6.37.91-14.06,1.52-22.76,1.23-9.3-.32-17.41-1.59-23.99-3.07,28.09-7.17,56.18-14.33,84.27-21.5l-87.96,14.13,80.58-62.04-87.96,56.52Z"/>
      </g>
      <g>
        <path class="cls-10" d="m18.94,576.4l-6.77-45.46c-1.61,1.95-4.09,5.45-5.54,10.44-1.71,5.91-1.11,10.92-.62,13.51.65,2.87,1.88,6.81,4.31,11.06,2.84,4.96,6.2,8.36,8.61,10.44Z"/>
        <path class="cls-10" d="m28.16,575.79l14.15-66.96c-4.52,1.6-10.43,4.22-16.61,8.6-4.72,3.34-8.36,6.83-11.07,9.83,4.51,16.18,9.02,32.35,13.53,48.53Z"/>
        <path class="cls-10" d="m44.77,507.6c-2.67,23.14-5.33,46.28-8,69.42,17.63-25.19,35.27-50.37,52.9-75.56-7.04-.54-16.12-.55-26.45,1.23-7.13,1.23-13.33,3.05-18.45,4.91Z"/>
        <path class="cls-10" d="m44.16,581.93l45.52-80.47c35.87,3.01,63.29,18.34,68.28,39.32.92,3.86,1.28,8.75,0,14.74-1.33,4.64-4.15,12.09-10.46,19.04-6.01,6.63-12.34,9.68-20.3,13.51-5.79,2.79-14.29,6.26-25.22,8.6-6.37.91-14.06,1.52-22.76,1.23-9.3-.32-17.41-1.59-23.99-3.07,28.09-7.17,56.18-14.33,84.27-21.5l-87.96,14.13,80.58-62.04-87.96,56.52Z"/>
      </g>
      <g>
        <path class="cls-10" d="m172.71,576.4l-6.77-45.46c-1.61,1.95-4.09,5.45-5.54,10.44-1.71,5.91-1.11,10.92-.62,13.51.65,2.87,1.88,6.81,4.31,11.06,2.84,4.96,6.2,8.36,8.61,10.44Z"/>
        <path class="cls-10" d="m181.94,575.79l14.15-66.96c-4.52,1.6-10.43,4.22-16.61,8.6-4.72,3.34-8.36,6.83-11.07,9.83,4.51,16.18,9.02,32.35,13.53,48.53Z"/>
        <path class="cls-10" d="m198.55,507.6c-2.67,23.14-5.33,46.28-8,69.42,17.63-25.19,35.27-50.37,52.9-75.56-7.04-.54-16.12-.55-26.45,1.23-7.13,1.23-13.33,3.05-18.45,4.91Z"/>
        <path class="cls-10" d="m197.93,581.93l45.52-80.47c35.87,3.01,63.29,18.34,68.28,39.32.92,3.86,1.28,8.75,0,14.74-1.33,4.64-4.15,12.09-10.46,19.04-6.01,6.63-12.34,9.68-20.3,13.51-5.79,2.79-14.29,6.26-25.22,8.6-6.37.91-14.06,1.52-22.76,1.23-9.3-.32-17.41-1.59-23.99-3.07,28.09-7.17,56.18-14.33,84.27-21.5l-87.96,14.13,80.58-62.04-87.96,56.52Z"/>
      </g>
      <g>
        <path class="cls-10" d="m327.11,576.4l-6.77-45.46c-1.61,1.95-4.09,5.45-5.54,10.44-1.71,5.91-1.11,10.92-.62,13.51.65,2.87,1.88,6.81,4.31,11.06,2.84,4.96,6.2,8.36,8.61,10.44Z"/>
        <path class="cls-10" d="m336.34,575.79l14.15-66.96c-4.52,1.6-10.43,4.22-16.61,8.6-4.72,3.34-8.36,6.83-11.07,9.83,4.51,16.18,9.02,32.35,13.53,48.53Z"/>
        <path class="cls-10" d="m352.94,507.6c-2.67,23.14-5.33,46.28-8,69.42,17.63-25.19,35.27-50.37,52.9-75.56-7.04-.54-16.12-.55-26.45,1.23-7.13,1.23-13.33,3.05-18.45,4.91Z"/>
        <path class="cls-10" d="m352.33,581.93l45.52-80.47c35.87,3.01,63.29,18.34,68.28,39.32.92,3.86,1.28,8.75,0,14.74-1.33,4.64-4.15,12.09-10.46,19.04-6.01,6.63-12.34,9.68-20.3,13.51-5.79,2.79-14.29,6.26-25.22,8.6-6.37.91-14.06,1.52-22.76,1.23-9.3-.32-17.41-1.59-23.99-3.07,28.09-7.17,56.18-14.33,84.27-21.5l-87.96,14.13,80.58-62.04-87.96,56.52Z"/>
      </g>
      <g>
        <path class="cls-10" d="m479.66,576.4l-6.77-45.46c-1.61,1.95-4.09,5.45-5.54,10.44-1.71,5.91-1.11,10.92-.62,13.51.65,2.87,1.88,6.81,4.31,11.06,2.84,4.96,6.2,8.36,8.61,10.44Z"/>
        <path class="cls-10" d="m488.88,575.79l14.15-66.96c-4.52,1.6-10.43,4.22-16.61,8.6-4.72,3.34-8.36,6.83-11.07,9.83,4.51,16.18,9.02,32.35,13.53,48.53Z"/>
        <path class="cls-10" d="m505.49,507.6c-2.67,23.14-5.33,46.28-8,69.42,17.63-25.19,35.27-50.37,52.9-75.56-7.04-.54-16.12-.55-26.45,1.23-7.13,1.23-13.33,3.05-18.45,4.91Z"/>
        <path class="cls-10" d="m504.88,581.93l45.52-80.47c35.87,3.01,63.29,18.34,68.28,39.32.92,3.86,1.28,8.75,0,14.74-1.33,4.64-4.15,12.09-10.46,19.04-6.01,6.63-12.34,9.68-20.3,13.51-5.79,2.79-14.29,6.26-25.22,8.6-6.37.91-14.06,1.52-22.76,1.23-9.3-.32-17.41-1.59-23.99-3.07,28.09-7.17,56.18-14.33,84.27-21.5l-87.96,14.13,80.58-62.04-87.96,56.52Z"/>
      </g>
      <g>
        <path class="cls-10" d="m18.94,676.53l-6.77-45.46c-1.61,1.95-4.09,5.45-5.54,10.44-1.71,5.91-1.11,10.92-.62,13.51.65,2.87,1.88,6.81,4.31,11.06,2.84,4.96,6.2,8.36,8.61,10.44Z"/>
        <path class="cls-10" d="m28.16,675.92l14.15-66.96c-4.52,1.6-10.43,4.22-16.61,8.6-4.72,3.34-8.36,6.83-11.07,9.83,4.51,16.18,9.02,32.35,13.53,48.53Z"/>
        <path class="cls-10" d="m44.77,607.73c-2.67,23.14-5.33,46.28-8,69.42,17.63-25.19,35.27-50.37,52.9-75.56-7.04-.54-16.12-.55-26.45,1.23-7.13,1.23-13.33,3.05-18.45,4.91Z"/>
        <path class="cls-10" d="m44.16,682.06l45.52-80.47c35.87,3.01,63.29,18.34,68.28,39.32.92,3.86,1.28,8.75,0,14.74-1.33,4.64-4.15,12.09-10.46,19.04-6.01,6.63-12.34,9.68-20.3,13.51-5.79,2.79-14.29,6.26-25.22,8.6-6.37.91-14.06,1.52-22.76,1.23-9.3-.32-17.41-1.59-23.99-3.07,28.09-7.17,56.18-14.33,84.27-21.5l-87.96,14.13,80.58-62.04-87.96,56.52Z"/>
      </g>
      <g>
        <path class="cls-10" d="m172.71,676.53l-6.77-45.46c-1.61,1.95-4.09,5.45-5.54,10.44-1.71,5.91-1.11,10.92-.62,13.51.65,2.87,1.88,6.81,4.31,11.06,2.84,4.96,6.2,8.36,8.61,10.44Z"/>
        <path class="cls-10" d="m181.94,675.92l14.15-66.96c-4.52,1.6-10.43,4.22-16.61,8.6-4.72,3.34-8.36,6.83-11.07,9.83,4.51,16.18,9.02,32.35,13.53,48.53Z"/>
        <path class="cls-10" d="m198.55,607.73c-2.67,23.14-5.33,46.28-8,69.42,17.63-25.19,35.27-50.37,52.9-75.56-7.04-.54-16.12-.55-26.45,1.23-7.13,1.23-13.33,3.05-18.45,4.91Z"/>
        <path class="cls-10" d="m197.93,682.06l45.52-80.47c35.87,3.01,63.29,18.34,68.28,39.32.92,3.86,1.28,8.75,0,14.74-1.33,4.64-4.15,12.09-10.46,19.04-6.01,6.63-12.34,9.68-20.3,13.51-5.79,2.79-14.29,6.26-25.22,8.6-6.37.91-14.06,1.52-22.76,1.23-9.3-.32-17.41-1.59-23.99-3.07,28.09-7.17,56.18-14.33,84.27-21.5l-87.96,14.13,80.58-62.04-87.96,56.52Z"/>
      </g>
      <g>
        <path class="cls-10" d="m327.11,676.53l-6.77-45.46c-1.61,1.95-4.09,5.45-5.54,10.44-1.71,5.91-1.11,10.92-.62,13.51.65,2.87,1.88,6.81,4.31,11.06,2.84,4.96,6.2,8.36,8.61,10.44Z"/>
        <path class="cls-10" d="m336.34,675.92l14.15-66.96c-4.52,1.6-10.43,4.22-16.61,8.6-4.72,3.34-8.36,6.83-11.07,9.83,4.51,16.18,9.02,32.35,13.53,48.53Z"/>
        <path class="cls-10" d="m352.94,607.73c-2.67,23.14-5.33,46.28-8,69.42,17.63-25.19,35.27-50.37,52.9-75.56-7.04-.54-16.12-.55-26.45,1.23-7.13,1.23-13.33,3.05-18.45,4.91Z"/>
        <path class="cls-10" d="m352.33,682.06l45.52-80.47c35.87,3.01,63.29,18.34,68.28,39.32.92,3.86,1.28,8.75,0,14.74-1.33,4.64-4.15,12.09-10.46,19.04-6.01,6.63-12.34,9.68-20.3,13.51-5.79,2.79-14.29,6.26-25.22,8.6-6.37.91-14.06,1.52-22.76,1.23-9.3-.32-17.41-1.59-23.99-3.07,28.09-7.17,56.18-14.33,84.27-21.5l-87.96,14.13,80.58-62.04-87.96,56.52Z"/>
      </g>
      <g>
        <path class="cls-10" d="m479.66,676.53l-6.77-45.46c-1.61,1.95-4.09,5.45-5.54,10.44-1.71,5.91-1.11,10.92-.62,13.51.65,2.87,1.88,6.81,4.31,11.06,2.84,4.96,6.2,8.36,8.61,10.44Z"/>
        <path class="cls-10" d="m488.88,675.92l14.15-66.96c-4.52,1.6-10.43,4.22-16.61,8.6-4.72,3.34-8.36,6.83-11.07,9.83,4.51,16.18,9.02,32.35,13.53,48.53Z"/>
        <path class="cls-10" d="m505.49,607.73c-2.67,23.14-5.33,46.28-8,69.42,17.63-25.19,35.27-50.37,52.9-75.56-7.04-.54-16.12-.55-26.45,1.23-7.13,1.23-13.33,3.05-18.45,4.91Z"/>
        <path class="cls-10" d="m504.88,682.06l45.52-80.47c35.87,3.01,63.29,18.34,68.28,39.32.92,3.86,1.28,8.75,0,14.74-1.33,4.64-4.15,12.09-10.46,19.04-6.01,6.63-12.34,9.68-20.3,13.51-5.79,2.79-14.29,6.26-25.22,8.6-6.37.91-14.06,1.52-22.76,1.23-9.3-.32-17.41-1.59-23.99-3.07,28.09-7.17,56.18-14.33,84.27-21.5l-87.96,14.13,80.58-62.04-87.96,56.52Z"/>
      </g>
      <g>
        <path class="cls-10" d="m18.94,776.66l-6.77-45.46c-1.61,1.95-4.09,5.45-5.54,10.44-1.71,5.91-1.11,10.92-.62,13.51.65,2.87,1.88,6.81,4.31,11.06,2.84,4.96,6.2,8.36,8.61,10.44Z"/>
        <path class="cls-10" d="m28.16,776.05l14.15-66.96c-4.52,1.6-10.43,4.22-16.61,8.6-4.72,3.34-8.36,6.83-11.07,9.83,4.51,16.18,9.02,32.35,13.53,48.53Z"/>
        <path class="cls-10" d="m44.77,707.86c-2.67,23.14-5.33,46.28-8,69.42,17.63-25.19,35.27-50.37,52.9-75.56-7.04-.54-16.12-.55-26.45,1.23-7.13,1.23-13.33,3.05-18.45,4.91Z"/>
        <path class="cls-10" d="m44.16,782.19l45.52-80.47c35.87,3.01,63.29,18.34,68.28,39.32.92,3.86,1.28,8.75,0,14.74-1.33,4.64-4.15,12.09-10.46,19.04-6.01,6.63-12.34,9.68-20.3,13.51-5.79,2.79-14.29,6.26-25.22,8.6-6.37.91-14.06,1.52-22.76,1.23-9.3-.32-17.41-1.59-23.99-3.07,28.09-7.17,56.18-14.33,84.27-21.5l-87.96,14.13,80.58-62.04-87.96,56.52Z"/>
      </g>
      <g>
        <path class="cls-10" d="m172.71,776.66l-6.77-45.46c-1.61,1.95-4.09,5.45-5.54,10.44-1.71,5.91-1.11,10.92-.62,13.51.65,2.87,1.88,6.81,4.31,11.06,2.84,4.96,6.2,8.36,8.61,10.44Z"/>
        <path class="cls-10" d="m181.94,776.05l14.15-66.96c-4.52,1.6-10.43,4.22-16.61,8.6-4.72,3.34-8.36,6.83-11.07,9.83,4.51,16.18,9.02,32.35,13.53,48.53Z"/>
        <path class="cls-10" d="m198.55,707.86c-2.67,23.14-5.33,46.28-8,69.42,17.63-25.19,35.27-50.37,52.9-75.56-7.04-.54-16.12-.55-26.45,1.23-7.13,1.23-13.33,3.05-18.45,4.91Z"/>
        <path class="cls-10" d="m197.93,782.19l45.52-80.47c35.87,3.01,63.29,18.34,68.28,39.32.92,3.86,1.28,8.75,0,14.74-1.33,4.64-4.15,12.09-10.46,19.04-6.01,6.63-12.34,9.68-20.3,13.51-5.79,2.79-14.29,6.26-25.22,8.6-6.37.91-14.06,1.52-22.76,1.23-9.3-.32-17.41-1.59-23.99-3.07,28.09-7.17,56.18-14.33,84.27-21.5l-87.96,14.13,80.58-62.04-87.96,56.52Z"/>
      </g>
      <g>
        <path class="cls-10" d="m327.11,776.66l-6.77-45.46c-1.61,1.95-4.09,5.45-5.54,10.44-1.71,5.91-1.11,10.92-.62,13.51.65,2.87,1.88,6.81,4.31,11.06,2.84,4.96,6.2,8.36,8.61,10.44Z"/>
        <path class="cls-10" d="m336.34,776.05l14.15-66.96c-4.52,1.6-10.43,4.22-16.61,8.6-4.72,3.34-8.36,6.83-11.07,9.83,4.51,16.18,9.02,32.35,13.53,48.53Z"/>
        <path class="cls-10" d="m352.94,707.86c-2.67,23.14-5.33,46.28-8,69.42,17.63-25.19,35.27-50.37,52.9-75.56-7.04-.54-16.12-.55-26.45,1.23-7.13,1.23-13.33,3.05-18.45,4.91Z"/>
        <path class="cls-10" d="m352.33,782.19l45.52-80.47c35.87,3.01,63.29,18.34,68.28,39.32.92,3.86,1.28,8.75,0,14.74-1.33,4.64-4.15,12.09-10.46,19.04-6.01,6.63-12.34,9.68-20.3,13.51-5.79,2.79-14.29,6.26-25.22,8.6-6.37.91-14.06,1.52-22.76,1.23-9.3-.32-17.41-1.59-23.99-3.07,28.09-7.17,56.18-14.33,84.27-21.5l-87.96,14.13,80.58-62.04-87.96,56.52Z"/>
      </g>
      <g>
        <path class="cls-10" d="m479.66,776.66l-6.77-45.46c-1.61,1.95-4.09,5.45-5.54,10.44-1.71,5.91-1.11,10.92-.62,13.51.65,2.87,1.88,6.81,4.31,11.06,2.84,4.96,6.2,8.36,8.61,10.44Z"/>
        <path class="cls-10" d="m488.88,776.05l14.15-66.96c-4.52,1.6-10.43,4.22-16.61,8.6-4.72,3.34-8.36,6.83-11.07,9.83,4.51,16.18,9.02,32.35,13.53,48.53Z"/>
        <path class="cls-10" d="m505.49,707.86c-2.67,23.14-5.33,46.28-8,69.42,17.63-25.19,35.27-50.37,52.9-75.56-7.04-.54-16.12-.55-26.45,1.23-7.13,1.23-13.33,3.05-18.45,4.91Z"/>
        <path class="cls-10" d="m504.88,782.19l45.52-80.47c35.87,3.01,63.29,18.34,68.28,39.32.92,3.86,1.28,8.75,0,14.74-1.33,4.64-4.15,12.09-10.46,19.04-6.01,6.63-12.34,9.68-20.3,13.51-5.79,2.79-14.29,6.26-25.22,8.6-6.37.91-14.06,1.52-22.76,1.23-9.3-.32-17.41-1.59-23.99-3.07,28.09-7.17,56.18-14.33,84.27-21.5l-87.96,14.13,80.58-62.04-87.96,56.52Z"/>
      </g>
      <g>
        <path class="cls-10" d="m18.94,876.79l-6.77-45.46c-1.61,1.95-4.09,5.45-5.54,10.44-1.71,5.91-1.11,10.92-.62,13.51.65,2.87,1.88,6.81,4.31,11.06,2.84,4.96,6.2,8.36,8.61,10.44Z"/>
        <path class="cls-10" d="m28.16,876.18l14.15-66.96c-4.52,1.6-10.43,4.22-16.61,8.6-4.72,3.34-8.36,6.83-11.07,9.83,4.51,16.18,9.02,32.35,13.53,48.53Z"/>
        <path class="cls-10" d="m44.77,807.99c-2.67,23.14-5.33,46.28-8,69.42,17.63-25.19,35.27-50.37,52.9-75.56-7.04-.54-16.12-.55-26.45,1.23-7.13,1.23-13.33,3.05-18.45,4.91Z"/>
        <path class="cls-10" d="m44.16,882.32l45.52-80.47c35.87,3.01,63.29,18.34,68.28,39.32.92,3.86,1.28,8.75,0,14.74-1.33,4.64-4.15,12.09-10.46,19.04-6.01,6.63-12.34,9.68-20.3,13.51-5.79,2.79-14.29,6.26-25.22,8.6-6.37.91-14.06,1.52-22.76,1.23-9.3-.32-17.41-1.59-23.99-3.07,28.09-7.17,56.18-14.33,84.27-21.5l-87.96,14.13,80.58-62.04-87.96,56.52Z"/>
      </g>
      <g>
        <path class="cls-10" d="m172.71,876.79l-6.77-45.46c-1.61,1.95-4.09,5.45-5.54,10.44-1.71,5.91-1.11,10.92-.62,13.51.65,2.87,1.88,6.81,4.31,11.06,2.84,4.96,6.2,8.36,8.61,10.44Z"/>
        <path class="cls-10" d="m181.94,876.18l14.15-66.96c-4.52,1.6-10.43,4.22-16.61,8.6-4.72,3.34-8.36,6.83-11.07,9.83,4.51,16.18,9.02,32.35,13.53,48.53Z"/>
        <path class="cls-10" d="m198.55,807.99c-2.67,23.14-5.33,46.28-8,69.42,17.63-25.19,35.27-50.37,52.9-75.56-7.04-.54-16.12-.55-26.45,1.23-7.13,1.23-13.33,3.05-18.45,4.91Z"/>
        <path class="cls-10" d="m197.93,882.32l45.52-80.47c35.87,3.01,63.29,18.34,68.28,39.32.92,3.86,1.28,8.75,0,14.74-1.33,4.64-4.15,12.09-10.46,19.04-6.01,6.63-12.34,9.68-20.3,13.51-5.79,2.79-14.29,6.26-25.22,8.6-6.37.91-14.06,1.52-22.76,1.23-9.3-.32-17.41-1.59-23.99-3.07,28.09-7.17,56.18-14.33,84.27-21.5l-87.96,14.13,80.58-62.04-87.96,56.52Z"/>
      </g>
      <g>
        <path class="cls-10" d="m327.11,876.79l-6.77-45.46c-1.61,1.95-4.09,5.45-5.54,10.44-1.71,5.91-1.11,10.92-.62,13.51.65,2.87,1.88,6.81,4.31,11.06,2.84,4.96,6.2,8.36,8.61,10.44Z"/>
        <path class="cls-10" d="m336.34,876.18l14.15-66.96c-4.52,1.6-10.43,4.22-16.61,8.6-4.72,3.34-8.36,6.83-11.07,9.83,4.51,16.18,9.02,32.35,13.53,48.53Z"/>
        <path class="cls-10" d="m352.94,807.99c-2.67,23.14-5.33,46.28-8,69.42,17.63-25.19,35.27-50.37,52.9-75.56-7.04-.54-16.12-.55-26.45,1.23-7.13,1.23-13.33,3.05-18.45,4.91Z"/>
        <path class="cls-10" d="m352.33,882.32l45.52-80.47c35.87,3.01,63.29,18.34,68.28,39.32.92,3.86,1.28,8.75,0,14.74-1.33,4.64-4.15,12.09-10.46,19.04-6.01,6.63-12.34,9.68-20.3,13.51-5.79,2.79-14.29,6.26-25.22,8.6-6.37.91-14.06,1.52-22.76,1.23-9.3-.32-17.41-1.59-23.99-3.07,28.09-7.17,56.18-14.33,84.27-21.5l-87.96,14.13,80.58-62.04-87.96,56.52Z"/>
      </g>
      <g>
        <path class="cls-10" d="m479.66,876.79l-6.77-45.46c-1.61,1.95-4.09,5.45-5.54,10.44-1.71,5.91-1.11,10.92-.62,13.51.65,2.87,1.88,6.81,4.31,11.06,2.84,4.96,6.2,8.36,8.61,10.44Z"/>
        <path class="cls-10" d="m488.88,876.18l14.15-66.96c-4.52,1.6-10.43,4.22-16.61,8.6-4.72,3.34-8.36,6.83-11.07,9.83,4.51,16.18,9.02,32.35,13.53,48.53Z"/>
        <path class="cls-10" d="m505.49,807.99c-2.67,23.14-5.33,46.28-8,69.42,17.63-25.19,35.27-50.37,52.9-75.56-7.04-.54-16.12-.55-26.45,1.23-7.13,1.23-13.33,3.05-18.45,4.91Z"/>
        <path class="cls-10" d="m504.88,882.32l45.52-80.47c35.87,3.01,63.29,18.34,68.28,39.32.92,3.86,1.28,8.75,0,14.74-1.33,4.64-4.15,12.09-10.46,19.04-6.01,6.63-12.34,9.68-20.3,13.51-5.79,2.79-14.29,6.26-25.22,8.6-6.37.91-14.06,1.52-22.76,1.23-9.3-.32-17.41-1.59-23.99-3.07,28.09-7.17,56.18-14.33,84.27-21.5l-87.96,14.13,80.58-62.04-87.96,56.52Z"/>
      </g>
      <g>
        <path class="cls-10" d="m18.94,976.92l-6.77-45.46c-1.61,1.95-4.09,5.45-5.54,10.44-1.71,5.91-1.11,10.92-.62,13.51.65,2.87,1.88,6.81,4.31,11.06,2.84,4.96,6.2,8.36,8.61,10.44Z"/>
        <path class="cls-10" d="m28.16,976.31l14.15-66.96c-4.52,1.6-10.43,4.22-16.61,8.6-4.72,3.34-8.36,6.83-11.07,9.83,4.51,16.18,9.02,32.35,13.53,48.53Z"/>
        <path class="cls-10" d="m44.77,908.12c-2.67,23.14-5.33,46.28-8,69.42,17.63-25.19,35.27-50.37,52.9-75.56-7.04-.54-16.12-.55-26.45,1.23-7.13,1.23-13.33,3.05-18.45,4.91Z"/>
        <path class="cls-10" d="m44.16,982.45l45.52-80.47c35.87,3.01,63.29,18.34,68.28,39.32.92,3.86,1.28,8.75,0,14.74-1.33,4.64-4.15,12.09-10.46,19.04-6.01,6.63-12.34,9.68-20.3,13.51-5.79,2.79-14.29,6.26-25.22,8.6-6.37.91-14.06,1.52-22.76,1.23-9.3-.32-17.41-1.59-23.99-3.07,28.09-7.17,56.18-14.33,84.27-21.5l-87.96,14.13,80.58-62.04-87.96,56.52Z"/>
      </g>
      <g>
        <path class="cls-10" d="m172.71,976.92l-6.77-45.46c-1.61,1.95-4.09,5.45-5.54,10.44-1.71,5.91-1.11,10.92-.62,13.51.65,2.87,1.88,6.81,4.31,11.06,2.84,4.96,6.2,8.36,8.61,10.44Z"/>
        <path class="cls-10" d="m181.94,976.31l14.15-66.96c-4.52,1.6-10.43,4.22-16.61,8.6-4.72,3.34-8.36,6.83-11.07,9.83,4.51,16.18,9.02,32.35,13.53,48.53Z"/>
        <path class="cls-10" d="m198.55,908.12c-2.67,23.14-5.33,46.28-8,69.42,17.63-25.19,35.27-50.37,52.9-75.56-7.04-.54-16.12-.55-26.45,1.23-7.13,1.23-13.33,3.05-18.45,4.91Z"/>
        <path class="cls-10" d="m197.93,982.45l45.52-80.47c35.87,3.01,63.29,18.34,68.28,39.32.92,3.86,1.28,8.75,0,14.74-1.33,4.64-4.15,12.09-10.46,19.04-6.01,6.63-12.34,9.68-20.3,13.51-5.79,2.79-14.29,6.26-25.22,8.6-6.37.91-14.06,1.52-22.76,1.23-9.3-.32-17.41-1.59-23.99-3.07,28.09-7.17,56.18-14.33,84.27-21.5l-87.96,14.13,80.58-62.04-87.96,56.52Z"/>
      </g>
      <g>
        <path class="cls-10" d="m327.11,976.92l-6.77-45.46c-1.61,1.95-4.09,5.45-5.54,10.44-1.71,5.91-1.11,10.92-.62,13.51.65,2.87,1.88,6.81,4.31,11.06,2.84,4.96,6.2,8.36,8.61,10.44Z"/>
        <path class="cls-10" d="m336.34,976.31l14.15-66.96c-4.52,1.6-10.43,4.22-16.61,8.6-4.72,3.34-8.36,6.83-11.07,9.83,4.51,16.18,9.02,32.35,13.53,48.53Z"/>
        <path class="cls-10" d="m352.94,908.12c-2.67,23.14-5.33,46.28-8,69.42,17.63-25.19,35.27-50.37,52.9-75.56-7.04-.54-16.12-.55-26.45,1.23-7.13,1.23-13.33,3.05-18.45,4.91Z"/>
        <path class="cls-10" d="m352.33,982.45l45.52-80.47c35.87,3.01,63.29,18.34,68.28,39.32.92,3.86,1.28,8.75,0,14.74-1.33,4.64-4.15,12.09-10.46,19.04-6.01,6.63-12.34,9.68-20.3,13.51-5.79,2.79-14.29,6.26-25.22,8.6-6.37.91-14.06,1.52-22.76,1.23-9.3-.32-17.41-1.59-23.99-3.07,28.09-7.17,56.18-14.33,84.27-21.5l-87.96,14.13,80.58-62.04-87.96,56.52Z"/>
      </g>
      <g>
        <path class="cls-10" d="m479.66,976.92l-6.77-45.46c-1.61,1.95-4.09,5.45-5.54,10.44-1.71,5.91-1.11,10.92-.62,13.51.65,2.87,1.88,6.81,4.31,11.06,2.84,4.96,6.2,8.36,8.61,10.44Z"/>
        <path class="cls-10" d="m488.88,976.31l14.15-66.96c-4.52,1.6-10.43,4.22-16.61,8.6-4.72,3.34-8.36,6.83-11.07,9.83,4.51,16.18,9.02,32.35,13.53,48.53Z"/>
        <path class="cls-10" d="m505.49,908.12c-2.67,23.14-5.33,46.28-8,69.42,17.63-25.19,35.27-50.37,52.9-75.56-7.04-.54-16.12-.55-26.45,1.23-7.13,1.23-13.33,3.05-18.45,4.91Z"/>
        <path class="cls-10" d="m504.88,982.45l45.52-80.47c35.87,3.01,63.29,18.34,68.28,39.32.92,3.86,1.28,8.75,0,14.74-1.33,4.64-4.15,12.09-10.46,19.04-6.01,6.63-12.34,9.68-20.3,13.51-5.79,2.79-14.29,6.26-25.22,8.6-6.37.91-14.06,1.52-22.76,1.23-9.3-.32-17.41-1.59-23.99-3.07,28.09-7.17,56.18-14.33,84.27-21.5l-87.96,14.13,80.58-62.04-87.96,56.52Z"/>
      </g>
    </g>
    <g>
      <g>
        <path class="cls-11" d="m212.52,496.33l-11.03-74.09c-2.63,3.17-6.67,8.88-9.02,17.02-2.78,9.63-1.81,17.8-1,22.03,1.06,4.68,3.06,11.1,7.02,18.02,4.63,8.09,10.11,13.63,14.04,17.02Z"/>
        <path class="cls-11" d="m227.56,495.33l23.06-109.14c-7.37,2.61-17,6.88-27.07,14.02-7.69,5.45-13.63,11.14-18.05,16.02,7.35,26.37,14.7,52.73,22.06,79.1Z"/>
        <path class="cls-11" d="m254.63,384.19c-4.34,37.71-8.69,75.43-13.03,113.14,28.74-41.05,57.48-82.1,86.22-123.15-11.48-.89-26.27-.9-43.11,2-11.63,2-21.72,4.96-30.08,8.01Z"/>
        <path class="cls-11" d="m253.63,505.34l74.19-131.16c58.47,4.9,103.16,29.89,111.28,64.08,1.49,6.29,2.08,14.27,0,24.03-2.17,7.56-6.76,19.7-17.04,31.04-9.79,10.81-20.12,15.78-33.08,22.03-9.44,4.55-23.29,10.2-41.11,14.02-10.38,1.48-22.91,2.49-37.09,2-15.16-.52-28.37-2.6-39.1-5.01,45.78-11.68,91.57-23.36,137.35-35.04l-143.37,23.03,131.34-101.13-143.37,92.11Z"/>
      </g>
      <polygon class="cls-11" points="264.45 625.15 289.45 625.15 298.45 579.15 304.45 626.15 343.45 626.15 358.45 547.15 332.45 547.15 323.45 593.15 316.45 548.15 279.45 548.15 264.45 625.15"/>
      <path class="cls-11" d="m404.45,578.15h36c.21-2.51.83-13.54-7-23-11.14-13.46-28.95-11.15-30-11-6.15,0-21.62.91-34,12-18.89,16.92-23.34,51.04-8,65,6.8,6.2,16.04,7.09,22,7,3.22.3,26.65,2.09,42-15,6.1-6.79,8.76-14.15,10-19h-35c-.86,1.9-5.36,11.64-9,11-3.37-.59-4.85-9.85-4-17,1.43-11.99,10.07-23.2,14-22,1.37.42,3.01,2.61,3,12Z"/>
      <path class="cls-11" d="m270.45,554.15c-3.35-6.25-10.46-6.96-11-7l-61-1-17,80c18.33.33,36.67.67,55,1,4.19-1.06,24.08-6.52,29-22,.48-1.5.83-3.16,1-5,.14-1.45.29-5.24-2-9-3.85-6.31-11.2-6.94-12-7,1.65-.32,12.37-2.56,17-12,1.45-2.96,1.9-5.82,2-8,.29-1.01,1.43-5.47-1-10Zm-38,51c-2.19,2.78-5.48,2.98-6,3h-9c.67-5,1.33-10,2-15h9c.48.12,3.54.97,5,4,1.33,2.76.65,5.9-1,8Zm5-29.2c-2.04,2.97-5.12,3.18-5.6,3.2h-8.4c.62-5.33,1.24-10.67,1.87-16h8.4c.44.13,3.3,1.04,4.67,4.27,1.24,2.94.61,6.29-.93,8.53Z"/>
    </g>
    <g>
      <rect class="cls-12" x="316.53" y="110.98" width="95" height="125" rx="13.09" ry="13.09"/>
      <g>
        <path class="cls-1" d="m380.03,234.23v-42c-2.94-1.06-6.84-2.13-11.5-2.5-8.07-.64-14.59,1.1-18.5,2.5v43"/>
        <path class="cls-1" d="m350.03,192.23c-3.66-.2-9.83-1.03-16.5-4.5-9.1-4.73-13.98-11.69-16-15,2.68-3.37,6.89-7.9,13-12,6.95-4.66,13.55-6.88,18-8v-41"/>
        <path class="cls-1" d="m378.53,111.73v42c-3.67,1.17-9.65,2.56-17,2-5.46-.42-9.89-1.77-13-3"/>
        <path class="cls-1" d="m378.53,153.73c3.9.29,11.24,1.36,19,6,6.7,4,10.82,8.94,13,12-.73,1.93-2.18,5.01-5,8-3.34,3.54-6.97,5.23-9,6"/>
        <circle class="cls-2" cx="402.53" cy="171.73" r="2"/>
      </g>
    </g>
    <g>
      <path class="cls-4" d="m426.78,160.1c.62.34,7.25,4.21,8,12,.58,5.99-2.56,11.88-8,15"/>
      <path class="cls-4" d="m435.28,152.6c.88.52,10.4,6.39,11.47,18.22.83,9.1-3.68,18.05-11.47,22.78"/>
      <path class="cls-4" d="m447.28,144.6c1.03.71,12.2,8.73,13.45,24.89.97,12.43-4.31,24.65-13.45,31.11"/>
      <path class="cls-4" d="m457.28,137.6c1.19.89,13.99,10.92,15.44,31.11,1.11,15.53-4.95,30.81-15.44,38.89"/>
    </g>
    <g>
      <ellipse class="cls-14" cx="440.78" cy="908.6" rx="65.5" ry="63"/>
      <ellipse class="cls-8" cx="522.78" cy="908.6" rx="65.5" ry="63"/>
      <path class="cls-13" d="m457.28,908.6c0,19.86,9.57,37.57,24.5,49.12,14.93-11.55,24.5-29.25,24.5-49.12s-9.57-37.57-24.5-49.12c-14.93,11.55-24.5,29.25-24.5,49.12Z"/>
    </g>
    <g>
      <g>
        <line class="cls-7" x1="444.28" y1="764.6" x2="444.28" y2="794.6"/>
        <path class="cls-5" d="m431.21,774.1c-4.17.84-7.94,4.33-8.43,9-.4,3.85,1.53,7.51,4.5,9.5,4.13,2.77,10.45,2.43,14-2,3.52-4.4,2.54-10.62-1-14-3.67-3.5-8.68-2.58-9.06-2.5Z"/>
      </g>
      <g>
        <line class="cls-7" x1="484.28" y1="764.6" x2="484.28" y2="794.6"/>
        <path class="cls-5" d="m497.01,774.1c4.06.84,7.74,4.33,8.22,9,.39,3.85-1.49,7.51-4.38,9.5-4.02,2.77-10.19,2.43-13.64-2-3.43-4.4-2.48-10.62.97-14,3.58-3.5,8.46-2.58,8.83-2.5Z"/>
      </g>
      <path class="cls-3" d="m455.28,783.6h18c.09-1.07.26-4.48-2-7-3.38-3.77-10.25-3.39-14,0-4.72,4.27-4.27,13.1,1,17,3.53,2.61,8.73,2.64,13,0"/>
      <line class="cls-3" x1="515.28" y1="773.6" x2="515.28" y2="794.6"/>
      <path class="cls-3" d="m531.28,765.6v24c.9,2.85,3.31,4.84,6,5,2.77.16,4.67-1.67,5-2"/>
      <line class="cls-3" x1="540.28" y1="774.6" x2="525.28" y2="774.6"/>
      <circle class="cls-6" cx="515.28" cy="763.6" r="4"/>
    </g>
  </g>
</svg>